<svg width="28" height="26" viewBox="0 0 28 26" fill="none" xmlns="http://www.w3.org/2000/svg">
<path d="M25.3799 0.0205078C26.3702 0.0123267 26.5175 0.0286857 26.8203 0.192383C27.2705 0.429769 27.6143 0.789811 27.8271 1.22363C27.9991 1.57567 27.999 1.59239 27.999 11.2939C27.999 22.0923 28.0408 21.274 27.4268 21.9453C26.8864 22.5266 26.4599 22.6494 24.9453 22.6494C21.4905 22.6577 18.1011 23.6151 15.2275 25.3916C15.1447 25.4433 15.0683 25.487 15 25.5283V13.2334C15.058 12.8129 15.0645 11.7571 15.0645 8.44434C15.0645 2.98419 15.0232 3.34424 15.7354 2.86133C18.0686 1.26487 22.2361 0.0368818 25.3799 0.0205078ZM1.55566 0.0449219C1.85061 -0.0532688 3.64288 0.0202806 4.74805 0.175781C7.27782 0.536008 10.324 1.59992 12.1006 2.74609C13.0011 3.33555 12.9355 2.88567 12.9355 8.44434C12.9355 11.7623 12.9418 12.8162 13 13.2354V25.5225C12.9548 25.4942 12.9053 25.4656 12.8535 25.4326C11.2325 24.4093 8.98926 23.5089 6.91797 23.0586C5.41162 22.7229 4.15906 22.6159 2.36621 22.665C0.647461 22.7141 0.434118 22.6735 0.164062 22.2236C0.000323314 21.9535 0 21.8385 0 11.7686C0 1.64946 -5.13494e-05 1.5753 0.171875 1.23145C0.433902 0.674899 0.933582 0.249554 1.55566 0.0449219Z" fill="#E73134"/>
</svg>
