<svg width="29" height="32" viewBox="0 0 29 32" fill="none" xmlns="http://www.w3.org/2000/svg">
<path d="M9.32585 0.125481C8.36009 0.36692 7.65841 0.789438 6.93409 1.55148C6.39086 2.13244 5.97588 2.89448 5.82498 3.58862C5.77971 3.80742 5.74199 4.32048 5.74199 4.73546V5.47486L5.2742 5.52768C3.80293 5.70121 2.2034 6.60661 1.32818 7.76853C0.392606 9.021 0.0078125 10.1377 0.0078125 11.6391C0.0078125 12.8237 0.279431 13.8724 0.807579 14.7024L0.988658 14.9966H3.10879C5.52318 14.9966 5.61372 15.0117 5.93061 15.5625C6.1796 15.985 6.16451 16.3094 5.88534 16.9206C5.68917 17.3356 5.65899 17.4789 5.69672 17.7581C5.7948 18.4824 6.23241 18.92 6.91146 18.9804C7.44715 19.0256 7.64332 18.9653 7.9753 18.6786C8.51854 18.2032 8.59399 17.6298 8.22428 16.7923C7.96021 16.1812 7.96775 15.8794 8.2771 15.4719C8.60153 15.0419 8.62417 15.0343 10.9857 14.9966L13.1738 14.9589L13.1964 13.5404L13.2115 12.1144L12.7362 12.1673C11.8006 12.2653 10.8575 11.9334 10.1633 11.2694C9.67292 10.7941 9.40884 10.3414 9.24285 9.71513C8.84297 8.13824 9.71064 6.4708 11.2498 5.85211C11.5818 5.7163 11.8157 5.67858 12.4419 5.67858H13.2115V3.32455V0.970516L12.9625 0.781893C12.0571 0.0953007 10.5481 -0.183863 9.32585 0.125481Z" fill="#E73134"/>
<path d="M16.9087 0.0877228C16.3353 0.208443 15.6261 0.510242 15.2714 0.78186L15.03 0.970485L15.0074 4.13183L14.9847 7.29317L14.7584 7.53461C14.5094 7.79868 14.1472 7.97976 13.8605 7.97976C13.7625 7.97976 13.4607 7.88168 13.1966 7.75341C12.427 7.39125 11.7706 7.48934 11.3028 8.05521C10.7596 8.69653 11.0236 9.82073 11.8083 10.1753C12.261 10.3791 12.6458 10.3564 13.1739 10.0924C13.7096 9.82073 14.0341 9.80564 14.4264 10.032C14.9847 10.3413 14.9772 10.3262 15.0225 12.7708L15.0602 14.9589L16.5013 14.9815L17.9424 14.9966L17.9046 14.4081C17.8443 13.397 18.1989 12.5067 18.9232 11.8201C20.0776 10.7337 21.8129 10.6205 23.088 11.5636C23.6011 11.9409 24.0991 12.6426 24.2801 13.2537C24.3631 13.5253 24.4084 13.9101 24.4009 14.3326L24.3858 14.9966H25.8344H27.283L27.5245 14.559C28.3167 13.1179 28.4525 11.2392 27.8791 9.60947C27.5169 8.56072 26.7172 7.45161 25.8721 6.81029C25.0271 6.16897 23.5106 5.56537 22.7561 5.56537H22.5071L22.4769 4.56189C22.4467 3.68667 22.4165 3.50559 22.2279 3.03781C22.1147 2.7511 21.9035 2.34367 21.7677 2.13241C21.232 1.28737 20.2059 0.502696 19.2476 0.200897C18.6214 0.00472832 17.5576 -0.0480862 16.9087 0.0877228Z" fill="#E73134"/>
<path d="M20.567 12.9143C20.2879 13.0426 19.9634 13.3821 19.8578 13.6612C19.7069 14.046 19.7597 14.4987 20.0087 15.0269C20.2803 15.6078 20.2652 15.9851 19.9483 16.3623C19.6088 16.7622 19.5862 16.7698 17.2473 16.8075L15.0592 16.8452L15.0366 18.2486L15.0215 19.6444H15.7533C16.3343 19.6519 16.5833 19.6821 16.9228 19.8179C18.5299 20.4442 19.3976 22.0965 18.9826 23.7111C18.5752 25.2579 17.1869 26.2463 15.5798 26.1482L15.0215 26.1104V28.5097V30.909L15.2705 31.0977C15.8514 31.5428 16.9605 31.8899 17.798 31.8974C19.888 31.905 21.8497 30.4035 22.3778 28.389C22.4457 28.1325 22.491 27.6194 22.491 27.1743V26.4122L23.0946 26.3292C25.2751 26.0199 27.1613 24.3977 27.9385 22.1569C28.1724 21.4778 28.1799 21.4024 28.1875 20.2782C28.1875 18.9201 28.0969 18.49 27.5989 17.4865L27.2821 16.8452L25.0412 16.8075C22.9437 16.7698 22.7928 16.7622 22.5966 16.6189C22.325 16.4076 22.1138 16.0002 22.1138 15.6682C22.1138 15.5173 22.2194 15.1627 22.3476 14.8835C22.5514 14.461 22.5815 14.3252 22.5363 14.0309C22.4382 13.3066 21.8723 12.8087 21.1555 12.8087C20.9594 12.8162 20.6953 12.8615 20.567 12.9143Z" fill="#E73134"/>
<path d="M0.875132 16.996C0.618603 17.426 0.558244 17.5392 0.399799 17.9391C-8.41867e-05 18.9501 -0.113259 20.3837 0.120635 21.5003C0.520519 23.3715 1.87107 25.054 3.59132 25.8161C4.11947 26.0424 5.13049 26.314 5.47756 26.314H5.72655L5.75673 27.31C5.78691 28.1927 5.81709 28.3738 6.00571 28.8416C6.71494 30.592 8.2013 31.7162 10.0045 31.8747C10.9703 31.9501 12.2152 31.6332 12.9094 31.1353L13.2112 30.9165V27.8155C13.2112 24.4127 13.2036 24.458 13.6789 24.0958C14.0939 23.7865 14.4184 23.7714 14.9767 24.043C15.7387 24.4051 16.3876 24.3448 16.8478 23.8544C17.6174 23.0244 17.1194 21.6663 15.9877 21.5154C15.6935 21.4702 15.5576 21.5003 15.1351 21.704C14.856 21.8323 14.5089 21.9379 14.3655 21.9379C14.0034 21.9379 13.6186 21.7418 13.4149 21.4551C13.2564 21.2287 13.2489 21.1457 13.2112 19.0331L13.1734 16.8451L11.7248 16.8225L10.2837 16.8074L10.3214 17.3959C10.4195 18.7615 9.68011 19.9989 8.40501 20.6025C7.92213 20.8288 7.83914 20.8439 7.06201 20.8439C6.26978 20.8439 6.20943 20.8288 5.70391 20.5874C4.45145 19.9762 3.68186 18.6182 3.82522 17.2827L3.87048 16.8074H2.4294H0.988307L0.875132 16.996Z" fill="#E73134"/>
</svg>
