<svg width="8" height="8" viewBox="0 0 8 8" fill="none" xmlns="http://www.w3.org/2000/svg">
<path d="M0.444446 7.99999C0.31852 7.99999 0.213039 7.93599 0.128002 7.80799C0.0429645 7.67999 0.000297829 7.52177 1.53256e-06 7.33332C-0.000294764 7.14488 0.0423719 6.98666 0.128002 6.85866C0.213631 6.73066 0.319113 6.66666 0.444446 6.66666H7.55555C7.68148 6.66666 7.78711 6.73066 7.87244 6.85866C7.95778 6.98666 8.00029 7.14488 8 7.33332C7.9997 7.52177 7.95704 7.68021 7.872 7.80866C7.78696 7.9371 7.68148 8.00088 7.55555 7.99999H0.444446ZM0.444446 4.66666C0.31852 4.66666 0.213039 4.60266 0.128002 4.47466C0.0429645 4.34666 0.000297829 4.18844 1.53256e-06 4C-0.000294764 3.81155 0.0423719 3.65333 0.128002 3.52533C0.213631 3.39733 0.319113 3.33333 0.444446 3.33333H7.55555C7.68148 3.33333 7.78711 3.39733 7.87244 3.52533C7.95778 3.65333 8.00029 3.81155 8 4C7.9997 4.18844 7.95704 4.34688 7.872 4.47533C7.78696 4.60377 7.68148 4.66755 7.55555 4.66666H0.444446ZM0.444446 1.33333C0.31852 1.33333 0.213039 1.26933 0.128002 1.14133C0.0429645 1.01333 0.000297829 0.85511 1.53256e-06 0.666666C-0.000294764 0.478222 0.0423719 0.32 0.128002 0.192C0.213631 0.064 0.319113 0 0.444446 0H7.55555C7.68148 0 7.78711 0.064 7.87244 0.192C7.95778 0.32 8.00029 0.478222 8 0.666666C7.9997 0.85511 7.95704 1.01355 7.872 1.142C7.78696 1.27044 7.68148 1.33422 7.55555 1.33333H0.444446Z" fill="#E73134"/>
</svg>
