<svg width="26" height="23" viewBox="0 0 26 23" fill="none" xmlns="http://www.w3.org/2000/svg">
<path d="M13 3.6447L12.347 4.28373C12.4316 4.37294 12.533 4.44389 12.6452 4.49235C12.7574 4.54081 12.8781 4.56579 13 4.56579C13.1219 4.56579 13.2426 4.54081 13.3548 4.49235C13.467 4.44389 13.5684 4.37294 13.653 4.28373L13 3.6447ZM9.88726 19.4018C8.05395 17.9332 6.05014 16.4991 4.45991 14.6803C2.90233 12.8959 1.81395 10.8154 1.81395 8.11424H0C0 11.3905 1.34233 13.8901 3.10428 15.9043C4.83358 17.8828 7.03935 19.4681 8.76381 20.8494L9.88726 19.4018ZM1.81395 8.11424C1.81395 5.47209 3.28326 3.25514 5.28949 2.3224C7.23888 1.41669 9.85823 1.65633 12.347 4.28373L13.653 3.0069C10.7023 -0.11084 7.27274 -0.625752 4.53488 0.646168C1.85749 1.89105 0 4.78144 0 8.11424H1.81395ZM8.76381 20.8494C9.38419 21.3459 10.0493 21.8743 10.7229 22.2749C11.3965 22.6756 12.1656 23 13 23V21.1566C12.6251 21.1566 12.1849 21.0092 11.6383 20.6835C11.0905 20.3591 10.5233 19.9118 9.88726 19.4018L8.76381 20.8494ZM17.2362 20.8494C18.9607 19.4669 21.1664 17.8841 22.8957 15.9043C24.6577 13.8889 26 11.3905 26 8.11424H24.186C24.186 10.8154 23.0977 12.8959 21.5401 14.6803C19.9499 16.4991 17.946 17.9332 16.1127 19.4018L17.2362 20.8494ZM26 8.11424C26 4.78144 24.1437 1.89105 21.4651 0.646168C18.7273 -0.625752 15.3001 -0.11084 12.347 3.00567L13.653 4.28373C16.1418 1.65756 18.7611 1.41669 20.7105 2.3224C22.7167 3.25514 24.186 5.47086 24.186 8.11424H26ZM16.1127 19.4018C15.4767 19.9118 14.9095 20.3591 14.3617 20.6835C13.8139 21.0079 13.3749 21.1566 13 21.1566V23C13.8344 23 14.6035 22.6743 15.2771 22.2749C15.9519 21.8743 16.6158 21.3459 17.2362 20.8494L16.1127 19.4018Z" fill="#B8C9DB"/>
</svg>
