<svg width="33" height="32" viewBox="0 0 33 32" fill="none" xmlns="http://www.w3.org/2000/svg">
<rect x="1.11523" y="0.5" width="31" height="31" rx="5.65385" fill="white" stroke="#DDE4EC"/>
<path d="M22.2134 12.4694C22.0526 12.2765 21.8513 12.1213 21.6238 12.0149C21.3963 11.9085 21.1482 11.8535 20.897 11.8538H11.6552L11.6312 11.6532C11.5821 11.2361 11.3817 10.8516 11.0679 10.5725C10.7541 10.2934 10.3489 10.1392 9.92897 10.139H9.80208C9.65048 10.139 9.50509 10.1992 9.39789 10.3064C9.29069 10.4136 9.23047 10.559 9.23047 10.7106C9.23047 10.8622 9.29069 11.0076 9.39789 11.1148C9.50509 11.222 9.65048 11.2822 9.80208 11.2822H9.92897C10.069 11.2822 10.2041 11.3336 10.3087 11.4266C10.4134 11.5197 10.4802 11.6479 10.4966 11.7869L11.2831 18.4747C11.3648 19.1703 11.6989 19.8116 12.2222 20.277C12.7455 20.7425 13.4214 20.9996 14.1217 20.9995H20.091C20.2426 20.9995 20.388 20.9393 20.4952 20.8321C20.6024 20.7249 20.6626 20.5795 20.6626 20.4279C20.6626 20.2763 20.6024 20.1309 20.4952 20.0237C20.388 19.9166 20.2426 19.8563 20.091 19.8563H14.1217C13.7679 19.8553 13.4231 19.7449 13.1345 19.5403C12.8459 19.3356 12.6277 19.0467 12.5098 18.7131H19.3234C19.9935 18.7132 20.6423 18.4777 21.1564 18.048C21.6706 17.6183 22.0174 17.0215 22.1363 16.3621L22.585 13.8733C22.6298 13.6264 22.6197 13.3726 22.5555 13.13C22.4913 12.8874 22.3745 12.6619 22.2134 12.4694ZM21.4629 13.6704L21.0136 16.1592C20.9422 16.5553 20.7338 16.9137 20.4248 17.1716C20.1158 17.4295 19.7259 17.5705 19.3234 17.5699H12.328L11.7901 12.997H20.897C20.981 12.9965 21.064 13.0145 21.1402 13.0498C21.2165 13.085 21.284 13.1366 21.338 13.2009C21.392 13.2651 21.4312 13.3405 21.4528 13.4217C21.4744 13.5028 21.4778 13.5877 21.4629 13.6704Z" fill="#242736"/>
<path d="M13.2321 23.8578C13.8635 23.8578 14.3753 23.3459 14.3753 22.7146C14.3753 22.0832 13.8635 21.5714 13.2321 21.5714C12.6007 21.5714 12.0889 22.0832 12.0889 22.7146C12.0889 23.3459 12.6007 23.8578 13.2321 23.8578Z" fill="#242736"/>
<path d="M18.9479 23.8578C19.5793 23.8578 20.0911 23.3459 20.0911 22.7146C20.0911 22.0832 19.5793 21.5714 18.9479 21.5714C18.3165 21.5714 17.8047 22.0832 17.8047 22.7146C17.8047 23.3459 18.3165 23.8578 18.9479 23.8578Z" fill="#242736"/>
<circle cx="22.1824" cy="11.6629" r="3.04762" fill="#E73134"/>
</svg>
