<svg width="35" height="25" viewBox="0 0 35 25" fill="none" xmlns="http://www.w3.org/2000/svg">
<path d="M5.55054 0.212778C5.30164 0.345526 0.248903 5.42315 0.0995613 5.68865C-0.0331871 5.92096 -0.0331871 6.21964 0.0995613 6.51003C0.157639 6.64278 4.04883 10.592 8.7448 15.2963C15.1084 21.6682 17.3817 23.8918 17.6472 24.0162C18.5101 24.4062 19.431 24.2651 20.1363 23.6263C20.6507 23.1699 20.8747 22.7136 20.9494 22.0084C21.0489 21.0709 21.2646 20.8551 22.2354 20.7556C23.6458 20.6145 24.4589 19.8098 24.5999 18.4076C24.6829 17.5613 24.9567 17.3041 25.9274 17.1548C26.9562 16.9971 27.9435 15.8688 28.1924 14.5745L28.2754 14.1679L24.9401 10.8326L21.6048 7.48905L20.7336 8.34361C19.4725 9.58813 18.9581 9.94489 17.8464 10.3431C16.2617 10.9073 14.2207 10.7414 12.7687 9.9117C11.9142 9.42219 10.9351 8.53444 10.7692 8.07812C10.5618 7.53883 10.6365 7.43927 13.2499 4.80919L15.7141 2.33675L15.5233 2.17911C15.2163 1.93021 14.287 1.66471 13.5569 1.62323C12.7272 1.57345 12.105 1.71449 11.0181 2.2206C10.1221 2.64373 9.68233 2.69351 8.9854 2.45291C8.65353 2.34505 8.38804 2.12933 7.58325 1.32454C6.33044 0.0800285 6.07324 -0.0610161 5.55054 0.212778Z" fill="#E73134"/>
<path d="M28.7482 0.270907C28.6154 0.312391 28.0181 0.826792 27.3709 1.46564C26.0932 2.72675 25.7613 2.92587 24.9648 2.92587C24.4339 2.92587 24.0937 2.80972 23.4382 2.38659C22.1439 1.5652 20.5012 1.49053 19.0741 2.19576C18.6095 2.42807 18.1615 2.82631 15.9048 5.07474C13.0341 7.92053 13.1502 7.7546 13.7974 8.08647C14.7847 8.59257 16.0873 8.73362 16.9668 8.43493C17.8711 8.12795 18.1864 7.89564 19.5719 6.53497C20.327 5.79656 21.0239 5.14111 21.1234 5.09133C21.3723 4.96688 21.8619 4.97518 22.1356 5.11622C22.2601 5.1826 23.9112 6.80877 25.8111 8.72532C27.7111 10.6502 29.2958 12.2183 29.3289 12.2183C29.4368 12.2183 34.8048 6.81706 34.9127 6.60135C35.0371 6.35244 35.0288 6.02887 34.8878 5.76337C34.7136 5.4315 29.5032 0.270907 29.3455 0.270907C29.2709 0.270907 29.163 0.254313 29.0966 0.23772C29.0386 0.221127 28.8809 0.23772 28.7482 0.270907Z" fill="#E73134"/>
</svg>
