<svg width="16" height="16" viewBox="0 0 16 16" fill="none" xmlns="http://www.w3.org/2000/svg">
<path d="M11.6475 3.82556C11.8266 3.82404 11.9991 3.89258 12.1279 4.01697L12.1299 4.01794L14.3936 6.28162L14.5635 6.45251H14.5459C14.9049 6.88696 15.1035 7.43496 15.1035 8.0033C15.1035 8.64875 14.847 9.26752 14.3906 9.724L12.127 11.9877C12.0641 12.0524 11.9892 12.1044 11.9062 12.14C11.8229 12.1758 11.7333 12.1949 11.6426 12.1957C11.5519 12.1965 11.4619 12.1792 11.3779 12.1449C11.294 12.1106 11.2175 12.0596 11.1533 11.9955C11.0892 11.9313 11.0383 11.8548 11.0039 11.7709C10.9696 11.6869 10.9524 11.5969 10.9531 11.5062C10.9539 11.4156 10.973 11.3259 11.0088 11.2426C11.0446 11.1592 11.0968 11.083 11.1621 11.0199L13.4238 8.7572C13.4508 8.72919 13.4753 8.69905 13.499 8.66833L4.49512 8.68689C4.31394 8.68689 4.13989 8.61473 4.01172 8.48669C3.88355 8.35853 3.81156 8.18455 3.81152 8.0033C3.81152 7.822 3.88352 7.6481 4.01172 7.5199C4.13977 7.39192 4.31311 7.31986 4.49414 7.3197L13.4717 7.30115C13.4565 7.28349 13.4421 7.26509 13.4258 7.24841V7.24744L11.1631 4.98474L11.1611 4.98376C11.0678 4.88702 11.0059 4.7654 10.9814 4.63513L10.9697 4.5033C10.9713 4.32414 11.0433 4.15248 11.1699 4.02576C11.2967 3.89901 11.4682 3.82712 11.6475 3.82556Z" fill="#242736" stroke="#242736" stroke-width="0.2"/>
<path d="M5.08496 0.900391C5.26626 0.900391 5.44016 0.972387 5.56836 1.10059C5.6965 1.22878 5.76855 1.40273 5.76855 1.58398C5.76845 1.76514 5.69647 1.93928 5.56836 2.06738C5.44019 2.1954 5.26612 2.26758 5.08496 2.26758H3.91797C3.48016 2.26758 3.06056 2.4414 2.75098 2.75098C2.4414 3.06056 2.26758 3.48016 2.26758 3.91797V12.0879C2.26758 12.5257 2.44139 12.9463 2.75098 13.2559C3.06053 13.5653 3.48029 13.7393 3.91797 13.7393H5.08496C5.26625 13.7393 5.44016 13.8113 5.56836 13.9395C5.69656 14.0677 5.76855 14.2416 5.76855 14.4229C5.76851 14.6041 5.69652 14.7781 5.56836 14.9062C5.44018 15.0343 5.26617 15.1064 5.08496 15.1064H3.91797C3.11801 15.1055 2.35088 14.7873 1.78516 14.2217C1.21951 13.656 0.901467 12.8888 0.900391 12.0889V3.91797L0.915039 3.62012C0.984251 2.92941 1.29002 2.28029 1.78516 1.78516C2.35091 1.21941 3.11788 0.901349 3.91797 0.900391H5.08496Z" fill="#242736" stroke="#242736" stroke-width="0.2"/>
</svg>
