<svg width="48" height="48" viewBox="0 0 48 48" fill="none" xmlns="http://www.w3.org/2000/svg">
<circle cx="24" cy="24" r="24" transform="matrix(-1 0 0 1 48 0)" fill="white" fill-opacity="0.23"/>
<path fill-rule="evenodd" clip-rule="evenodd" d="M20.2291 23.4598C20.0824 23.6006 20 23.7916 20 23.9908C20 24.1899 20.0824 24.3809 20.2291 24.5218L24.6549 28.7707C24.7271 28.8424 24.8134 28.8997 24.9088 28.939C25.0043 28.9784 25.107 28.9991 25.2108 29C25.3147 29.0008 25.4177 28.9818 25.5139 28.9441C25.61 28.9063 25.6974 28.8505 25.7709 28.78C25.8443 28.7095 25.9024 28.6256 25.9417 28.5333C25.9811 28.441 26.0009 28.3421 26 28.2424C25.9991 28.1427 25.9775 28.0441 25.9365 27.9525C25.8955 27.8608 25.8359 27.7779 25.7612 27.7087L21.8885 23.9908L25.7612 20.2729C25.9037 20.1312 25.9825 19.9415 25.9807 19.7446C25.979 19.5476 25.8967 19.3592 25.7516 19.22C25.6066 19.0807 25.4103 19.0017 25.2052 19C25.0001 18.9983 24.8024 19.074 24.6549 19.2108L20.2291 23.4598Z" fill="white"/>
</svg>
