<svg width="17" height="15" viewBox="0 0 17 15" fill="none" xmlns="http://www.w3.org/2000/svg">
<path d="M8.49902 2.20801C10.0116 0.895215 11.6922 0.631405 13.1162 1.14844L13.4248 1.27441L13.7158 1.41992C15.1134 2.18953 16.0609 3.72658 16.0957 5.48633H16.0996V5.68652H16.0967C16.0692 7.52024 15.2924 8.92364 14.2832 10.0547L14.2842 10.0557C13.2788 11.1833 11.9948 12.0865 11.0059 12.8633L10.9277 12.9248L10.9268 12.9229C10.5915 13.1851 10.2319 13.4629 9.86426 13.6768C9.49486 13.8913 9.06722 14.0715 8.59961 14.0947V14.0996H8.40039V14.0947C7.93283 14.0716 7.50531 13.8921 7.13574 13.6768C6.76861 13.4628 6.40784 13.1853 6.07227 12.9229V12.9248L5.99414 12.8633C5.0051 12.0871 3.72217 11.1826 2.7168 10.0557C1.7074 8.92519 0.930756 7.5205 0.90332 5.68652H0.900391V5.48633H0.904297C0.94149 3.60714 2.02103 1.98238 3.5752 1.27441L3.88379 1.14844C5.3074 0.631585 6.98767 0.895865 8.49902 2.20801ZM8.05176 3.49121C6.64168 2.03278 5.1743 1.91103 4.09277 2.40332C2.97249 2.91366 2.14663 4.13046 2.14648 5.58594C2.14648 7.08131 2.75998 8.23537 3.64746 9.23145C4.53466 10.2255 5.64546 11.0135 6.68652 11.8262H6.6875L6.76562 11.8877L7.28711 12.2871C7.45222 12.4078 7.61012 12.5148 7.76465 12.6045L7.98242 12.7197C8.18793 12.8165 8.35661 12.8584 8.5 12.8584C8.6909 12.8584 8.92618 12.7839 9.23535 12.6045C9.54431 12.4252 9.86643 12.1767 10.2344 11.8877L10.3125 11.8262C11.3537 11.0133 12.4652 10.2257 13.3525 9.23145C14.1846 8.29753 14.7761 7.22502 14.8467 5.8623L14.8535 5.58594L14.8438 5.31641C14.749 3.98088 13.9576 2.88183 12.9072 2.40332C11.8257 1.91104 10.3583 2.03343 8.94824 3.49121L8.87988 3.5625L8.87207 3.55469C8.83201 3.58458 8.78944 3.61128 8.74316 3.63086C8.66617 3.6634 8.58362 3.68066 8.5 3.68066C8.41629 3.68066 8.33293 3.66347 8.25586 3.63086C8.20955 3.61121 8.16702 3.58466 8.12695 3.55469L8.12012 3.5625L8.05176 3.49121Z" fill="#242736" stroke="#242736" stroke-width="0.2"/>
</svg>
