<svg width="168" height="26" viewBox="0 0 168 26" fill="none" xmlns="http://www.w3.org/2000/svg">
<path d="M0.211382 0.241556C0.0905924 0.33215 0 6.19046 0 13.2265V26H4.37863H8.75727V23.7654C8.75727 21.259 8.66667 21.1684 6.13009 21.1684C5.43554 21.1684 4.7712 21.0174 4.68061 20.8664C4.55982 20.655 7.30779 20.5645 12.6527 20.5645C20.5041 20.5645 22.9803 20.8664 19.0546 21.3194L17.273 21.5308L17.1522 23.6446C17.0918 24.7921 17.122 25.8188 17.1824 25.8792C17.2428 25.9396 19.2056 26 21.5006 26H25.6679V13.0151V0.0301743H13.0453C6.09989 0.0301743 0.301975 0.120768 0.211382 0.241556ZM19.115 8.24389L17.2126 8.54586V10.7805V13.0151H19.3264C21.0174 13.0151 21.4402 13.1057 21.4402 13.468C21.4402 13.8606 20.2927 13.921 12.9849 13.921C7.54937 13.921 4.52962 13.8002 4.52962 13.619C4.52962 13.4379 5.25436 13.3171 6.16028 13.3171C8.69687 13.3171 8.75727 13.2567 8.75727 10.9013V8.84784L7.82115 8.66665C7.30779 8.57606 6.40186 8.48547 5.85831 8.48547C5.28456 8.48547 4.8316 8.33448 4.8316 8.18349C4.8316 8.00231 7.70036 7.88152 12.9245 7.91171C19.2962 7.94191 20.5947 8.03251 19.115 8.24389Z" fill="#242736"/>
<path d="M28.2954 0.241556C28.1746 0.33215 28.084 6.19046 28.084 13.2265V26H32.3116H36.5393V20.6852V15.3705L34.8482 12.5017C33.9121 10.9315 33.2176 9.60277 33.2779 9.54238C33.5497 9.2706 34.1839 10.0859 36.3279 13.3775L38.6229 16.9408H41.3105H43.9679L46.1723 13.2869C48.1955 9.96514 48.9806 9.02902 49.4034 9.48198C49.494 9.57257 48.7391 10.9013 47.7425 12.4413C46.7158 14.0116 45.9005 15.5517 45.9005 15.8838C45.8703 19.8699 45.8703 25.3357 45.8703 25.6074C45.9005 25.9094 46.9574 26 50.1281 26H54.3256V13.4379C54.3256 6.52263 54.235 0.694519 54.1444 0.45294C54.0236 0.120768 53.1177 0.0301743 49.6752 0.0301743H45.3569L43.3337 3.20091C42.2164 4.95236 41.2199 6.37164 41.1293 6.37164C41.0085 6.37164 40.012 4.95236 38.8947 3.20091L36.8714 0.0301743H32.674C30.379 0.0301743 28.386 0.120768 28.2954 0.241556Z" fill="#242736"/>
<path d="M56.771 13.0151V26H69.6049H82.4388V19.5075V13.0151L80.5666 12.9849L78.6642 12.9547L80.5666 12.3205L82.4388 11.6864L82.3785 5.94888L82.2879 0.181162L69.5445 0.0905704L56.771 0.0301743V13.0151ZM74.1949 9.54238L74.1647 10.9013H69.6955H65.2263V9.84435C65.2263 8.81764 65.1961 8.78744 64.0486 8.78744C63.3842 8.78744 62.7501 8.63645 62.6595 8.48547C62.5387 8.27408 64.5015 8.18349 68.3668 8.18349H74.2553L74.1949 9.54238ZM74.0138 14.374C74.0439 14.6156 74.0741 15.1591 74.0741 15.5819C74.0741 16.0046 74.0439 16.7294 74.0138 17.2427L73.9836 18.1487L68.4876 18.1185C64.1996 18.0883 63.2333 18.0279 64.109 17.7863L65.2263 17.4843V15.7027V13.921H69.6049C73.289 13.921 73.9836 13.9814 74.0138 14.374Z" fill="#242736"/>
<path d="M84.855 13.0151V26H97.8399H110.825V13.0151V-2.28882e-05L106.688 0.0905704L102.521 0.181162V8.78744V17.3937L104.423 17.6655C105.45 17.8165 106.295 18.0581 106.295 18.1789C106.295 18.3298 102.611 18.4506 98.1117 18.4506C93.1593 18.4506 90.0187 18.3298 90.1395 18.1789C90.2301 18.0279 91.0455 17.7863 91.9514 17.6957L93.6122 17.4843V8.75724V0.0301743H89.2336H84.855V13.0151Z" fill="#242736"/>
<path d="M141.324 13.0151V26H145.854H150.414L150.323 21.9837L150.232 17.9977L148.421 17.8165C147.424 17.7259 150.142 17.6353 154.46 17.6353C158.778 17.6353 161.828 17.6957 161.255 17.7561C160.681 17.8165 159.745 17.9373 159.231 18.0279L158.235 18.1789V22.0743V26H162.764H167.294L167.234 13.0755L167.143 0.181162L162.855 0.0905704L158.537 -2.28882e-05V4.10683V8.18349H160.198C161.104 8.18349 161.858 8.30428 161.858 8.48547C161.858 8.66665 159.05 8.78744 154.007 8.78744C148.964 8.78744 146.156 8.66665 146.156 8.48547C146.156 8.30428 146.669 8.18349 147.334 8.18349C147.968 8.18349 148.934 8.0929 149.447 8.00231L150.383 7.79092V3.92565V0.0301743H145.854H141.324V13.0151Z" fill="#242736"/>
<path d="M113.542 4.2578V8.18347H126.225H138.908V4.2578V0.332129H126.225H113.542V4.2578Z" fill="#242736"/>
<path d="M113.542 13.0151V16.3368H122.149H130.755V18.8734C130.755 21.8931 130.272 22.5877 129.97 19.9605L129.759 18.1487H121.666H113.542V22.0743V26H126.225H138.908V17.8467V9.69337H126.225H113.542V13.0151Z" fill="#242736"/>
</svg>
