<svg width="68" height="68" viewBox="0 0 68 68" fill="none" xmlns="http://www.w3.org/2000/svg">
<circle cx="34" cy="34" r="34" fill="#E73134"/>
<path d="M21.2114 21.2113C21.0906 21.3019 21 27.1602 21 34.1962V46.9697H25.3786H29.7573V44.7351C29.7573 42.2287 29.6667 42.1381 27.1301 42.1381C26.4355 42.1381 25.7712 41.9871 25.6806 41.8362C25.5598 41.6248 28.3078 41.5342 33.6527 41.5342C41.5041 41.5342 43.9803 41.8362 40.0546 42.2891L38.273 42.5005L38.1522 44.6143C38.0918 45.7618 38.122 46.7885 38.1824 46.8489C38.2428 46.9093 40.2056 46.9697 42.5006 46.9697H46.6679V33.9848V20.9999H34.0453C27.0999 20.9999 21.302 21.0905 21.2114 21.2113ZM40.115 29.2136L38.2126 29.5156V31.7502V33.9848H40.3264C42.0174 33.9848 42.4402 34.0754 42.4402 34.4378C42.4402 34.8303 41.2927 34.8907 33.9849 34.8907C28.5494 34.8907 25.5296 34.7699 25.5296 34.5888C25.5296 34.4076 26.2544 34.2868 27.1603 34.2868C29.6969 34.2868 29.7573 34.2264 29.7573 31.871V29.8176L28.8211 29.6364C28.3078 29.5458 27.4019 29.4552 26.8583 29.4552C26.2846 29.4552 25.8316 29.3042 25.8316 29.1532C25.8316 28.972 28.7004 28.8512 33.9245 28.8814C40.2962 28.9116 41.5947 29.0022 40.115 29.2136Z" fill="white"/>
</svg>
