<svg width="32" height="32" viewBox="0 0 32 32" fill="none" xmlns="http://www.w3.org/2000/svg">
<rect x="0.5" y="0.5" width="31" height="31" rx="5.65385" fill="white" stroke="#DDE4EC"/>
<path fill-rule="evenodd" clip-rule="evenodd" d="M15.3202 9.84613C14.4472 9.8462 13.5868 10.055 12.8109 10.4552C12.035 10.8554 11.366 11.4354 10.8599 12.1467C10.3537 12.8579 10.025 13.68 9.90109 14.5441C9.77722 15.4083 9.86182 16.2896 10.1478 17.1144C10.4338 17.9392 10.9129 18.6837 11.5452 19.2857C12.1775 19.8877 12.9445 20.3298 13.7824 20.5751C14.6203 20.8204 15.5046 20.8617 16.3617 20.6957C17.2188 20.5297 18.0238 20.1612 18.7095 19.6208L21.0618 21.973C21.1833 22.0903 21.346 22.1553 21.5149 22.1538C21.6838 22.1523 21.8453 22.0846 21.9647 21.9652C22.0842 21.8458 22.1519 21.6842 22.1534 21.5153C22.1548 21.3465 22.0899 21.1838 21.9726 21.0623L19.6203 18.7101C20.2567 17.9028 20.6529 16.9326 20.7637 15.9107C20.8744 14.8887 20.6952 13.8562 20.2465 12.9314C19.7978 12.0065 19.0978 11.2266 18.2266 10.681C17.3554 10.1354 16.3482 9.84606 15.3202 9.84613ZM11.1335 15.3209C11.1335 14.2105 11.5746 13.1457 12.3597 12.3605C13.1449 11.5754 14.2098 11.1343 15.3202 11.1343C16.4306 11.1343 17.4955 11.5754 18.2807 12.3605C19.0658 13.1457 19.5069 14.2105 19.5069 15.3209C19.5069 16.4312 19.0658 17.4961 18.2807 18.2812C17.4955 19.0664 16.4306 19.5075 15.3202 19.5075C14.2098 19.5075 13.1449 19.0664 12.3597 18.2812C11.5746 17.4961 11.1335 16.4312 11.1335 15.3209Z" fill="#242736"/>
</svg>
