<svg width="40" height="39" viewBox="0 0 40 39" fill="none" xmlns="http://www.w3.org/2000/svg">
<path d="M19.8262 0C9.06219 0 0.326172 8.73602 0.326172 19.5C0.326172 30.2641 9.06219 39.0001 19.8262 39.0001C30.5902 39.0001 39.3263 30.2641 39.3263 19.5C39.3263 8.73602 30.5902 0 19.8262 0ZM28.8742 13.26C28.5817 16.341 27.3142 23.8291 26.6707 27.2806C26.3977 28.7431 25.8517 29.2306 25.3447 29.2891C24.2137 29.3866 23.3557 28.5481 22.2637 27.8266C20.5477 26.6956 19.5727 25.9936 17.9152 24.9016C15.9847 23.6341 17.2327 22.9321 18.3442 21.8011C18.6367 21.5086 23.6287 16.965 23.7262 16.5555C23.7398 16.4935 23.738 16.4291 23.721 16.368C23.704 16.3068 23.6723 16.2507 23.6287 16.2045C23.5117 16.107 23.3557 16.146 23.2192 16.1655C23.0437 16.2045 20.3137 18.018 14.9902 21.6061C14.2102 22.1326 13.5082 22.4056 12.8842 22.3861C12.1822 22.3666 10.8562 21.9961 9.86169 21.6646C8.63319 21.2745 7.67769 21.06 7.75569 20.3775C7.79469 20.0265 8.28219 19.6755 9.19869 19.305C14.8927 16.8285 18.6757 15.1905 20.5672 14.4105C25.9882 12.1485 27.0997 11.7585 27.8407 11.7585C27.9967 11.7585 28.3672 11.7975 28.6012 11.9925C28.7962 12.1485 28.8547 12.363 28.8742 12.519C28.8547 12.636 28.8937 12.987 28.8742 13.26Z" fill="#27A3E2"/>
</svg>
