<svg width="39" height="39" viewBox="0 0 39 39" fill="none" xmlns="http://www.w3.org/2000/svg">
<path d="M19.5 0C8.73033 0 0 8.73033 0 19.5C0 30.2698 8.73033 39.0001 19.5 39.0001C30.2698 39.0001 39.0001 30.2698 39.0001 19.5C39.0001 8.73033 30.2698 0 19.5 0ZM26.9994 22.0005C26.9994 22.0005 28.724 23.7027 29.1485 24.4929C29.1607 24.5105 29.1681 24.524 29.1709 24.5335C29.3428 24.8219 29.3855 25.0501 29.2988 25.218C29.1566 25.4983 28.6691 25.6365 28.5026 25.6487H25.4557C25.2444 25.6487 24.8016 25.5938 24.2654 25.2241C23.853 24.9357 23.4468 24.4624 23.0507 24.0013C22.4596 23.3147 21.9477 22.7216 21.4318 22.7216C21.3662 22.7213 21.3011 22.7316 21.2388 22.7521C20.8488 22.878 20.3491 23.4346 20.3491 24.9174C20.3491 25.3805 19.9835 25.6466 19.7255 25.6466H18.33C17.8547 25.6466 15.3786 25.4801 13.1849 23.1665C10.4996 20.3329 8.08236 14.6494 8.06205 14.5966C7.90971 14.2289 8.22455 14.0319 8.56783 14.0319H11.6452C12.0555 14.0319 12.1896 14.2818 12.283 14.5032C12.3927 14.7611 12.7949 15.7869 13.455 16.9407C14.5255 18.8216 15.1816 19.5854 15.7077 19.5854C15.8063 19.5842 15.9032 19.5591 15.99 19.5122C16.6766 19.1304 16.5486 16.6827 16.5182 16.1749C16.5182 16.0794 16.5161 15.08 16.1647 14.6007C15.9128 14.2533 15.4843 14.1213 15.2243 14.0725C15.3295 13.9273 15.4681 13.8096 15.6285 13.7293C16.0997 13.4936 16.9488 13.4591 17.7918 13.4591H18.261C19.175 13.4713 19.4107 13.5302 19.7418 13.6135C20.4121 13.7739 20.4263 14.2066 20.3674 15.6874C20.3491 16.1079 20.3308 16.5832 20.3308 17.1438L20.3247 17.5338C20.3044 18.2874 20.28 19.1425 20.8122 19.494C20.8809 19.5392 20.9616 19.5626 21.0438 19.561C21.2286 19.561 21.7852 19.561 23.2924 16.9752C23.7555 16.142 24.1593 15.2773 24.501 14.3874C24.5315 14.3346 24.6208 14.1721 24.7265 14.1091C24.8052 14.0717 24.8911 14.0516 24.9783 14.0502H28.596C28.9901 14.0502 29.2602 14.1091 29.311 14.2614C29.4004 14.5032 29.2948 15.2405 27.6433 17.4769L26.906 18.4499C25.409 20.4121 25.409 20.5116 26.9994 22.0005Z" fill="#0073F7"/>
</svg>
